<?xml version="1.0" encoding="UTF-8"?>
<svg xmlns="http://www.w3.org/2000/svg" version="1.1" width="200" height="200" viewBox="0 0 200 200"><rect x="0" y="0" width="200" height="200" fill="#ffffff"/><g transform="scale(6.897)"><g transform="translate(0,0)"><path fill-rule="evenodd" d="M10 0L10 2L11 2L11 0ZM12 0L12 1L13 1L13 2L12 2L12 4L13 4L13 3L14 3L14 4L15 4L15 3L16 3L16 4L17 4L17 5L20 5L20 8L21 8L21 9L19 9L19 8L17 8L17 6L16 6L16 5L15 5L15 6L14 6L14 8L15 8L15 9L12 9L12 7L13 7L13 5L11 5L11 6L10 6L10 4L11 4L11 3L8 3L8 4L9 4L9 5L8 5L8 7L9 7L9 8L6 8L6 9L7 9L7 10L6 10L6 11L4 11L4 12L3 12L3 14L4 14L4 15L3 15L3 16L4 16L4 18L3 18L3 17L0 17L0 21L1 21L1 18L2 18L2 20L3 20L3 21L7 21L7 20L5 20L5 18L6 18L6 19L9 19L9 20L8 20L8 23L9 23L9 24L8 24L8 29L9 29L9 28L10 28L10 29L11 29L11 27L9 27L9 24L10 24L10 25L12 25L12 26L13 26L13 27L12 27L12 29L13 29L13 28L14 28L14 29L16 29L16 28L14 28L14 27L16 27L16 26L17 26L17 25L19 25L19 26L18 26L18 28L17 28L17 29L18 29L18 28L19 28L19 29L20 29L20 28L21 28L21 29L22 29L22 27L23 27L23 29L24 29L24 28L25 28L25 27L26 27L26 25L27 25L27 28L26 28L26 29L27 29L27 28L28 28L28 26L29 26L29 25L27 25L27 24L28 24L28 22L29 22L29 21L28 21L28 18L29 18L29 17L28 17L28 16L26 16L26 15L24 15L24 14L26 14L26 13L28 13L28 14L27 14L27 15L28 15L28 14L29 14L29 12L26 12L26 11L27 11L27 10L29 10L29 9L28 9L28 8L27 8L27 10L25 10L25 9L26 9L26 8L25 8L25 9L24 9L24 8L23 8L23 9L22 9L22 8L21 8L21 4L19 4L19 3L21 3L21 2L18 2L18 1L16 1L16 0L15 0L15 1L14 1L14 0ZM19 0L19 1L20 1L20 0ZM8 1L8 2L9 2L9 1ZM14 2L14 3L15 3L15 2ZM16 2L16 3L18 3L18 2ZM9 6L9 7L10 7L10 6ZM11 6L11 7L12 7L12 6ZM15 6L15 8L16 8L16 9L15 9L15 10L16 10L16 9L17 9L17 11L16 11L16 13L14 13L14 12L15 12L15 11L14 11L14 12L13 12L13 13L12 13L12 11L13 11L13 10L12 10L12 9L11 9L11 8L10 8L10 9L8 9L8 10L7 10L7 11L6 11L6 12L4 12L4 13L6 13L6 14L5 14L5 15L4 15L4 16L5 16L5 17L6 17L6 18L7 18L7 17L9 17L9 18L10 18L10 20L9 20L9 21L10 21L10 24L11 24L11 22L13 22L13 23L12 23L12 25L15 25L15 26L16 26L16 25L17 25L17 24L19 24L19 25L20 25L20 23L18 23L18 22L19 22L19 21L20 21L20 20L19 20L19 19L21 19L21 20L22 20L22 19L23 19L23 18L22 18L22 17L25 17L25 18L24 18L24 19L25 19L25 18L28 18L28 17L26 17L26 16L24 16L24 15L22 15L22 14L21 14L21 16L20 16L20 14L19 14L19 15L15 15L15 14L16 14L16 13L17 13L17 14L18 14L18 13L21 13L21 12L22 12L22 13L23 13L23 14L24 14L24 13L26 13L26 12L24 12L24 11L25 11L25 10L24 10L24 9L23 9L23 10L22 10L22 9L21 9L21 10L22 10L22 11L20 11L20 10L19 10L19 9L17 9L17 8L16 8L16 6ZM18 6L18 7L19 7L19 6ZM0 8L0 9L1 9L1 12L0 12L0 13L2 13L2 11L3 11L3 10L2 10L2 9L5 9L5 8ZM10 9L10 11L11 11L11 9ZM6 12L6 13L7 13L7 14L6 14L6 15L5 15L5 16L6 16L6 17L7 17L7 16L8 16L8 13L11 13L11 12ZM17 12L17 13L18 13L18 12ZM23 12L23 13L24 13L24 12ZM10 14L10 15L9 15L9 16L10 16L10 18L11 18L11 17L12 17L12 18L13 18L13 19L12 19L12 21L13 21L13 20L14 20L14 21L17 21L17 22L15 22L15 23L14 23L14 24L15 24L15 25L16 25L16 24L17 24L17 22L18 22L18 21L19 21L19 20L17 20L17 19L19 19L19 18L20 18L20 16L19 16L19 17L18 17L18 16L15 16L15 15L14 15L14 16L15 16L15 17L12 17L12 15L13 15L13 14ZM0 15L0 16L1 16L1 15ZM6 15L6 16L7 16L7 15ZM21 16L21 17L22 17L22 16ZM15 17L15 18L18 18L18 17ZM14 19L14 20L16 20L16 19ZM26 19L26 20L25 20L25 22L28 22L28 21L26 21L26 20L27 20L27 19ZM10 20L10 21L11 21L11 20ZM21 21L21 24L24 24L24 21ZM22 22L22 23L23 23L23 22ZM26 23L26 24L25 24L25 25L24 25L24 26L23 26L23 25L22 25L22 26L19 26L19 28L20 28L20 27L22 27L22 26L23 26L23 27L24 27L24 26L25 26L25 25L26 25L26 24L27 24L27 23ZM0 0L0 7L7 7L7 0ZM1 1L1 6L6 6L6 1ZM2 2L2 5L5 5L5 2ZM22 0L22 7L29 7L29 0ZM23 1L23 6L28 6L28 1ZM24 2L24 5L27 5L27 2ZM0 22L0 29L7 29L7 22ZM1 23L1 28L6 28L6 23ZM2 24L2 27L5 27L5 24Z" fill="#000000"/></g></g></svg>
